<svg xmlns="http://www.w3.org/2000/svg" xmlns:xlink="http://www.w3.org/1999/xlink" preserveAspectRatio="xMidYMid" width="463" height="544" viewBox="0 0 463 544">
  <defs>
    <style>
      .cls-1 {
        fill: #000;
        fill-rule: evenodd;
      }
    </style>
  </defs>
  <path d="M381.863,313.502 L381.854,186.101 L418.710,179.695 L418.799,272.353 L450.764,266.797 L450.684,301.541 L381.863,313.502 ZM401.111,43.220 L401.131,138.590 L364.974,144.874 L365.128,49.474 L343.120,53.299 L343.131,21.267 L423.131,7.363 L423.120,39.395 L401.111,43.220 ZM286.896,158.444 L274.400,125.886 L261.743,162.815 L222.792,169.585 L252.288,98.058 L224.529,41.880 L261.909,35.383 L273.495,66.840 L284.966,31.376 L323.568,24.667 L295.515,90.005 L325.324,151.765 L286.896,158.444 ZM133.876,57.636 L197.981,46.494 L197.977,79.605 L168.807,84.675 L168.616,99.104 L195.515,94.429 L195.641,125.178 L168.741,129.854 L168.732,145.331 L201.221,139.684 L201.309,173.319 L133.885,185.037 L133.876,57.636 ZM180.458,254.214 L151.288,259.284 L151.097,273.713 L177.996,269.038 L178.122,299.787 L151.222,304.462 L151.213,319.939 L183.702,314.293 L183.790,347.928 L116.366,359.646 L116.357,232.244 L180.462,221.103 L180.458,254.214 ZM137.744,410.169 L121.458,440.711 C119.271,439.174 116.669,438.006 113.652,437.209 C110.634,436.415 107.786,436.249 105.108,436.715 C104.060,436.897 103.002,437.202 101.937,437.626 C100.870,438.053 99.928,438.667 99.108,439.467 C98.286,440.271 97.672,441.218 97.263,442.307 C96.851,443.399 96.779,444.702 97.042,446.214 C97.406,448.310 98.456,449.868 100.193,450.885 C101.928,451.905 104.852,453.196 108.964,454.759 C111.263,455.560 113.824,456.676 116.653,458.101 C119.480,459.531 122.262,461.386 124.998,463.669 C127.735,465.954 130.183,468.827 132.345,472.289 C134.505,475.755 136.012,479.929 136.862,484.820 C138.218,492.623 137.985,499.561 136.161,505.636 C134.338,511.711 131.497,516.946 127.643,521.333 C123.786,525.723 119.181,529.253 113.828,531.921 C108.471,534.590 103.001,536.412 97.412,537.384 C88.910,538.861 80.982,538.980 73.630,537.738 C66.276,536.497 60.308,534.416 55.720,531.494 L71.853,500.078 C74.526,501.655 77.579,502.834 81.016,503.614 C84.450,504.398 87.798,504.505 91.059,503.938 C93.387,503.533 95.407,502.552 97.116,500.996 C98.825,499.439 99.447,497.323 98.981,494.643 C98.637,492.665 97.559,490.962 95.754,489.536 C93.946,488.112 90.802,486.589 86.322,484.967 C83.379,483.921 80.460,482.657 77.566,481.180 C74.670,479.704 72.015,477.888 69.601,475.727 C67.184,473.568 65.101,470.902 63.351,467.725 C61.599,464.552 60.340,460.753 59.571,456.326 C58.538,450.387 58.632,444.553 59.857,438.821 C61.080,433.092 63.379,427.862 66.758,423.136 C70.135,418.410 74.527,414.349 79.936,410.948 C85.343,407.551 91.715,405.212 99.051,403.937 C107.201,402.521 114.688,402.451 121.508,403.723 C128.326,404.998 133.738,407.148 137.744,410.169 ZM36.192,373.581 L36.183,246.179 L73.039,239.773 L73.127,332.431 L105.092,326.876 L105.013,361.620 L36.192,373.581 ZM38.984,139.089 L38.460,139.180 L39.737,201.401 L7.248,207.047 L7.239,79.645 L46.191,72.876 L66.810,133.533 L67.509,133.412 L66.453,69.354 L97.894,63.889 L97.903,191.291 L59.824,197.909 L38.984,139.089 ZM216.102,342.312 L186.748,220.010 L225.875,213.210 L239.718,292.860 L240.242,292.769 L252.425,208.596 L292.425,201.643 L262.390,334.267 L216.102,342.312 ZM210.409,431.729 L228.924,428.511 L228.792,384.267 L265.473,377.892 L265.482,505.294 L228.976,511.639 L229.042,462.321 L210.701,465.509 L210.635,514.826 L174.303,521.141 L174.294,393.739 L210.451,387.455 L210.409,431.729 ZM365.258,222.095 L336.088,227.165 L335.897,241.594 L362.796,236.919 L362.922,267.668 L336.023,272.344 L336.013,287.821 L368.502,282.174 L368.590,315.809 L301.166,327.528 L301.157,200.126 L365.262,188.984 L365.258,222.095 ZM345.480,491.390 L308.450,497.826 L308.441,370.424 L345.471,363.988 L345.480,491.390 ZM379.007,358.159 L459.007,344.255 L458.996,376.288 L436.987,380.113 L437.007,475.482 L400.850,481.766 L401.005,386.367 L378.996,390.192 L379.007,358.159 Z" class="cls-1"/>
</svg>
